<svg width="446" height="394" viewBox="0 0 446 394" xmlns="http://www.w3.org/2000/svg">
<path d="M149.1 41.4C89.3 92.9 74.2 173.4 115.5 221.3C156.7 269.2 238.6 266.2 298.4 214.7C358.2 163.2 373.3 82.7 332 34.8C290.8 -13.1 208.9 -10.1 149.1 41.4ZM271.4 164C271.4 177.2 260.6 188 247.4 188H152.2C139 188 128.2 177.2 128.2 164V156.1C128.2 142.9 139 132.1 152.2 132.1H247.4C260.6 132.1 271.4 142.9 271.4 156.1V164ZM319.3 100C319.3 113.2 308.5 124 295.3 124H200.1C186.9 124 176.1 113.2 176.1 100V92.1C176.1 78.9 186.9 68.1 200.1 68.1H295.3C308.5 68.1 319.3 78.9 319.3 92.1V100Z" />
<path d="M195.3 387.5V371.9H159.1V357.1L189.9 323.5H204.8V362.4H221L216.1 371.9H204.8V387.5H195.4H195.3ZM195.3 362.4V329.9L166.2 362.4H195.3Z" />
<path d="M270 308.2H258.2L219.7 387.5H231L239.3 370.5H289.7L298.2 387.5H308.8L270.4 308.7L270.1 308.2H270ZM284.6 360.4H243.9L264.1 319L284.6 360.4Z" />
<path d="M329 308.2H317.1V387.5H377.3V377.1H329V308.2Z" />
<path d="M396.9 377.1V308.2H385V387.5H445.3V377.1H396.9Z" />
<path d="M0 316.8V319.1V342V353.2V376V377.3V387.2H58V376H11.2V353.2H53.7V342H11.2V319.1H58V307.9H0V316.8Z" />
<path d="M109 378.4C91.6 378.4 77.5 364.3 77.5 346.9C77.5 329.5 91.6 315.4 109 315.4C126.4 315.4 140.5 329.5 140.5 346.9C140.5 364.3 137.9 361.2 133.5 366.6L120.5 353.6L112.6 361.5L144.5 393.4L152.4 385.5L139.9 373C145.9 365.9 149.5 356.8 149.5 346.8C149.5 324.4 131.3 306.2 108.9 306.2C86.5 306.2 68.3 324.4 68.3 346.8C68.3 369.2 86.5 387.4 108.9 387.4C131.3 387.4 117.1 386.8 120.9 385.6L113.3 378C111.9 378.2 110.4 378.3 108.9 378.3L109 378.4Z" />
</svg>
