<svg width="279" height="66" viewBox="0 0 279 66"  xmlns="http://www.w3.org/2000/svg">
<g clip-path="url(#clip0_54724_188)">
<path d="M89.5362 57.8909V59.5852H91.7079V60.2735H89.5362V62.4444H92.5554V63.1856H88.6357V57.1497H92.6084V57.8909H89.5362Z" fill="black"/>
<path d="M96.475 63.1858V60.5914C96.475 60.1149 96.4221 59.7972 96.2632 59.5854C96.1043 59.3736 95.8394 59.3207 95.4686 59.3207C95.0979 59.3207 95.0449 59.3736 94.833 59.4795C94.6211 59.5854 94.4622 59.7442 94.3563 59.8501V63.1329H93.5088V58.7382H94.0914L94.3563 59.3207C94.6211 58.8971 95.0979 58.6853 95.7335 58.6853C96.7929 58.6853 97.3225 59.2677 97.3225 60.4326V63.1858H96.475Z" fill="black"/>
<path d="M100.289 63.2915H100.077L98.0112 58.791H98.9647L100.236 61.8619L101.56 58.791H102.461L100.342 63.2915H100.289Z" fill="black"/>
<path d="M103.52 63.1858V59.4266H102.832V58.7912H104.368V63.1858H103.52ZM103.997 57.0969C104.156 57.0969 104.262 57.0969 104.368 57.2558C104.474 57.3617 104.527 57.4676 104.527 57.5734C104.527 57.6793 104.527 57.8382 104.368 57.9441C104.262 58.05 104.156 58.1029 103.997 58.1029C103.838 58.1029 103.732 58.1029 103.626 57.9441C103.52 57.8382 103.467 57.7323 103.467 57.5734C103.467 57.4146 103.467 57.3087 103.626 57.2558C103.732 57.1499 103.838 57.0969 103.997 57.0969Z" fill="black"/>
<path d="M105.427 62.9211L105.745 62.1798C106.221 62.4445 106.592 62.6034 106.91 62.6034C107.44 62.6034 107.704 62.3916 107.704 61.968C107.704 61.5444 107.44 61.4386 106.91 61.2268C106.539 61.0679 106.274 60.962 106.115 60.8561C105.956 60.7502 105.851 60.6973 105.745 60.5914C105.639 60.4855 105.586 60.3796 105.533 60.2208C105.533 60.1149 105.48 59.956 105.48 59.8501C105.48 59.4795 105.639 59.2148 105.903 59.003C106.168 58.7912 106.592 58.6853 107.016 58.6853C107.44 58.6853 107.81 58.7912 108.34 59.003L108.075 59.7442C107.757 59.4795 107.387 59.3736 107.069 59.3736C106.751 59.3736 106.698 59.3736 106.539 59.4795C106.38 59.5854 106.327 59.6913 106.327 59.7972C106.327 60.0619 106.486 60.2737 106.857 60.4326L107.493 60.6973C107.863 60.8561 108.128 61.015 108.34 61.2268C108.499 61.4386 108.605 61.7033 108.605 61.968C108.605 62.2328 108.446 62.6563 108.128 62.9211C107.81 63.1329 107.387 63.2387 106.857 63.2387C106.327 63.2387 105.851 63.1329 105.427 62.8681V62.9211Z" fill="black"/>
<path d="M109.876 63.1858V59.4266H109.188V58.7912H110.724V63.1858H109.876ZM110.353 57.0969C110.512 57.0969 110.618 57.0969 110.724 57.2558C110.83 57.3617 110.882 57.4676 110.882 57.5734C110.882 57.6793 110.882 57.8382 110.724 57.9441C110.618 58.05 110.512 58.1029 110.353 58.1029C110.194 58.1029 110.088 58.1029 109.982 57.9441C109.876 57.8382 109.823 57.7323 109.823 57.5734C109.823 57.4146 109.823 57.3087 109.982 57.2558C110.088 57.1499 110.194 57.0969 110.353 57.0969Z" fill="black"/>
<path d="M111.783 60.962C111.783 60.2737 111.995 59.7442 112.366 59.3207C112.79 58.8971 113.319 58.6853 113.955 58.6853C114.591 58.6853 115.173 58.8971 115.544 59.2677C115.915 59.6913 116.127 60.2208 116.127 60.962C116.127 61.7033 115.915 62.2328 115.544 62.6563C115.173 63.0799 114.644 63.2917 113.955 63.2917C113.266 63.2917 112.737 63.0799 112.366 62.6563C111.995 62.2328 111.783 61.7033 111.783 60.962ZM112.684 60.962C112.684 62.0739 113.107 62.6034 113.955 62.6034C114.802 62.6034 114.644 62.4445 114.908 62.1798C115.12 61.8621 115.226 61.4915 115.226 60.962C115.226 59.8501 114.802 59.3207 113.955 59.3207C113.107 59.3207 113.266 59.4795 113.001 59.7442C112.737 60.009 112.631 60.4326 112.631 60.962H112.684Z" fill="black"/>
<path d="M120.046 63.1858V60.5914C120.046 60.1149 119.993 59.7972 119.834 59.5854C119.676 59.3736 119.411 59.3207 119.04 59.3207C118.669 59.3207 118.616 59.3736 118.404 59.4795C118.192 59.5854 118.034 59.7442 117.928 59.8501V63.1329H117.08V58.7382H117.663L117.928 59.3207C118.192 58.8971 118.669 58.6853 119.305 58.6853C120.364 58.6853 120.894 59.2677 120.894 60.4326V63.1858H120.046Z" fill="black"/>
<path d="M122.536 63.1858V59.4266H121.847V58.7912H123.383V63.1858H122.536ZM123.012 57.0969C123.171 57.0969 123.277 57.0969 123.383 57.2558C123.489 57.3617 123.542 57.4676 123.542 57.5734C123.542 57.6793 123.542 57.8382 123.383 57.9441C123.277 58.05 123.171 58.1029 123.012 58.1029C122.854 58.1029 122.748 58.1029 122.642 57.9441C122.536 57.8382 122.483 57.7323 122.483 57.5734C122.483 57.4146 122.483 57.3087 122.642 57.2558C122.748 57.1499 122.854 57.0969 123.012 57.0969Z" fill="black"/>
<path d="M127.727 63.1858V60.5914C127.727 60.1149 127.674 59.7972 127.515 59.5854C127.356 59.3736 127.091 59.3207 126.72 59.3207C126.349 59.3207 126.296 59.3736 126.084 59.4795C125.873 59.5854 125.714 59.7442 125.608 59.8501V63.1329H124.76V58.7382H125.343L125.608 59.3207C125.873 58.8971 126.349 58.6853 126.985 58.6853C128.044 58.6853 128.574 59.2677 128.574 60.4326V63.1858H127.727Z" fill="black"/>
<path d="M129.634 64.4035L130.11 63.7681C130.587 64.0858 131.064 64.2446 131.487 64.2446C131.911 64.2446 132.176 64.1917 132.388 64.0858C132.6 63.9799 132.706 63.821 132.706 63.6093C132.706 63.2386 132.441 63.0798 131.858 63.0798C131.276 63.0798 131.593 63.0798 131.329 63.1327C131.064 63.1327 130.852 63.1857 130.746 63.1857C130.057 63.1857 129.739 62.9739 129.739 62.4974C129.739 62.0208 129.845 62.2326 130.004 62.1267C130.163 62.0208 130.375 61.9149 130.587 61.862C129.898 61.5973 129.581 61.0678 129.581 60.3265C129.581 59.5853 129.739 59.4794 130.11 59.1617C130.481 58.844 130.905 58.6852 131.434 58.6852C131.964 58.6852 132.282 58.7911 132.547 58.9499L132.971 58.4734L133.553 58.9499L133.024 59.3205C133.235 59.5853 133.341 59.903 133.341 60.3265C133.341 60.7501 133.182 61.1207 132.865 61.4384C132.547 61.7561 132.176 61.915 131.646 61.9679H130.958C130.852 62.0208 130.746 62.0738 130.64 62.1267C130.481 62.1267 130.428 62.2326 130.428 62.3385C130.428 62.4444 130.587 62.4974 130.852 62.4974C131.117 62.4974 131.17 62.4974 131.434 62.4444C131.699 62.4444 131.911 62.3915 132.07 62.3915C132.547 62.3915 132.918 62.4974 133.182 62.7092C133.447 62.9209 133.606 63.1857 133.606 63.5563C133.606 63.9269 133.394 64.2976 133.024 64.5623C132.653 64.827 132.123 64.9329 131.487 64.9329C130.852 64.9329 130.852 64.9329 130.481 64.7741C130.11 64.6682 129.845 64.5623 129.634 64.4035ZM131.487 59.3205C131.17 59.3205 130.958 59.4264 130.746 59.5853C130.534 59.7441 130.481 60.0089 130.481 60.2736C130.481 60.5383 130.587 60.856 130.746 61.0148C130.905 61.2266 131.17 61.3325 131.487 61.3325C131.805 61.3325 132.017 61.2266 132.176 61.0148C132.335 60.8031 132.441 60.5383 132.441 60.2206C132.441 59.903 132.335 59.6912 132.176 59.5323C132.017 59.3735 131.752 59.2676 131.487 59.2676V59.3205Z" fill="black"/>
<path d="M138.214 57.8909V59.5852H140.386V60.2735H138.214V62.4444H141.234V63.1856H137.314V57.1497H141.287V57.8909H138.214Z" fill="black"/>
<path d="M145.312 64.933V62.921C145.048 63.1328 144.624 63.2387 144.041 63.2387C143.458 63.2387 142.876 63.0269 142.505 62.6563C142.134 62.2857 141.922 61.7033 141.922 60.962C141.922 60.2207 142.134 59.6913 142.558 59.2677C142.982 58.8441 143.564 58.6323 144.2 58.6323C144.836 58.6323 144.995 58.7912 145.365 59.0559L145.577 58.7382H146.107V64.8801H145.259L145.312 64.933ZM145.312 59.6913C145.048 59.4795 144.783 59.3736 144.412 59.3736C144.041 59.3736 143.564 59.5324 143.3 59.7972C143.035 60.1148 142.876 60.4855 142.876 61.0149C142.876 61.5444 143.035 61.915 143.3 62.2327C143.564 62.4975 143.935 62.6563 144.412 62.6563C144.889 62.6563 145.153 62.5504 145.365 62.3916V59.7442L145.312 59.6913Z" fill="black"/>
<path d="M148.173 58.7912V61.5974C148.173 62.2857 148.491 62.6034 149.126 62.6034C149.762 62.6034 149.656 62.5504 149.921 62.3916C150.133 62.2328 150.291 62.0739 150.397 61.8621V58.7382H151.245V63.1329H150.397V62.4975C150.291 62.6563 150.133 62.8152 149.815 62.974C149.55 63.1329 149.232 63.1858 148.967 63.1858C148.438 63.1858 148.014 63.027 147.749 62.7622C147.484 62.4975 147.325 62.0739 147.325 61.5974V58.6853H148.173V58.7912Z" fill="black"/>
<path d="M152.834 63.1858V59.4266H152.146V58.7912H153.682V63.1858H152.834ZM153.311 57.0969C153.47 57.0969 153.576 57.0969 153.682 57.2558C153.788 57.3617 153.84 57.4676 153.84 57.5734C153.84 57.6793 153.841 57.8382 153.682 57.9441C153.576 58.05 153.47 58.1029 153.311 58.1029C153.152 58.1029 153.046 58.1029 152.94 57.9441C152.834 57.8382 152.781 57.7323 152.781 57.5734C152.781 57.4146 152.781 57.3087 152.94 57.2558C153.046 57.1499 153.152 57.0969 153.311 57.0969Z" fill="black"/>
<path d="M155.377 59.4264H154.794V58.791H155.377V57.8909L156.224 57.5732V58.791H157.548V59.4264H156.224V61.5972C156.224 61.9678 156.277 62.2326 156.436 62.3914C156.595 62.5503 156.807 62.6032 157.072 62.6032C157.336 62.6032 157.495 62.6032 157.76 62.4444L157.866 63.1327C157.495 63.2386 157.125 63.2386 156.701 63.2386C156.277 63.2386 156.012 63.1327 155.747 62.8679C155.483 62.6032 155.377 62.2855 155.377 61.862V59.3734V59.4264Z" fill="black"/>
<path d="M161.468 62.7093C161.15 63.0799 160.62 63.2917 159.879 63.2917C159.137 63.2917 159.19 63.1858 158.872 62.9211C158.608 62.6564 158.449 62.3387 158.449 61.9681C158.449 61.5974 158.661 61.1209 159.084 60.8562C159.508 60.5385 160.038 60.3796 160.726 60.3796C161.415 60.3796 161.097 60.3796 161.362 60.4855C161.362 59.7972 160.991 59.4266 160.303 59.4266C159.614 59.4266 159.349 59.5325 159.084 59.7972L158.714 59.1619C158.872 59.056 159.084 58.9501 159.402 58.8442C159.667 58.7383 159.985 58.7383 160.25 58.7383C160.938 58.7383 161.468 58.8971 161.786 59.1619C162.104 59.4266 162.262 59.9031 162.262 60.5385V62.1269C162.262 62.4975 162.368 62.7623 162.633 62.9211V63.2917C162.262 63.2917 161.998 63.2917 161.839 63.1329C161.68 63.027 161.521 62.8682 161.468 62.7093ZM161.415 61.015C161.15 60.9621 160.938 60.9091 160.832 60.9091C160.409 60.9091 160.038 61.015 159.773 61.2268C159.508 61.4386 159.349 61.6504 159.349 61.9681C159.349 62.4446 159.667 62.6564 160.25 62.6564C160.832 62.6564 161.044 62.4446 161.415 62.0739V61.015Z" fill="black"/>
<path d="M164.328 62.8681L164.01 63.2917H163.586V56.991H164.434V59.1088C164.54 59.003 164.646 58.8971 164.911 58.8441C165.175 58.7912 165.334 58.7382 165.546 58.7382C166.235 58.7382 166.765 58.95 167.135 59.3736C167.559 59.7972 167.771 60.3266 167.771 60.962C167.771 61.5974 167.559 62.2857 167.135 62.7092C166.712 63.1328 166.182 63.3446 165.44 63.3446C164.699 63.3446 164.964 63.3446 164.752 63.2387C164.54 63.1858 164.381 63.0799 164.222 62.974L164.328 62.8681ZM164.487 59.6913V62.2327C164.487 62.2327 164.593 62.3386 164.805 62.4445C165.017 62.5504 165.175 62.6034 165.281 62.6034C165.864 62.6034 166.288 62.4975 166.553 62.2327C166.818 61.968 166.923 61.5444 166.923 60.962C166.923 60.3796 166.765 60.0619 166.5 59.7972C166.182 59.5324 165.811 59.3736 165.281 59.3736C164.752 59.3736 165.017 59.3736 164.858 59.4795C164.646 59.5854 164.54 59.6383 164.487 59.6913Z" fill="black"/>
<path d="M168.831 61.968V56.991H169.678V61.8621C169.678 62.0739 169.731 62.2857 169.89 62.4445C170.049 62.6034 170.208 62.6563 170.473 62.6563V63.3446C169.36 63.3446 168.831 62.921 168.831 62.0209V61.968Z" fill="black"/>
<path d="M175.558 61.068H172.062C172.062 61.5974 172.221 61.9681 172.538 62.2857C172.803 62.5505 173.174 62.6564 173.598 62.6564C174.021 62.6564 174.498 62.5505 174.816 62.2857L175.187 62.8682C175.081 62.974 174.869 63.0799 174.551 63.1858C174.233 63.2917 173.81 63.3447 173.386 63.3447C172.803 63.3447 172.273 63.1329 171.85 62.7623C171.373 62.3387 171.161 61.8092 171.161 61.068C171.161 60.3267 171.426 59.7443 171.903 59.3207C172.326 58.9501 172.856 58.7383 173.439 58.7383C174.021 58.7383 174.657 58.8971 175.081 59.2678C175.452 59.5854 175.663 60.062 175.663 60.6444C175.663 61.2268 175.663 60.9621 175.611 61.1209L175.558 61.068ZM173.492 59.3736C173.121 59.3736 172.803 59.4795 172.538 59.6913C172.273 59.9031 172.168 60.1679 172.115 60.4855H174.816C174.816 60.1679 174.71 59.9031 174.498 59.6913C174.286 59.4795 173.916 59.3207 173.545 59.3207L173.492 59.3736Z" fill="black"/>
<path d="M179.106 62.9211L179.424 62.1798C179.583 62.2857 179.795 62.3916 180.06 62.4445C180.325 62.4975 180.537 62.5504 180.748 62.5504C181.119 62.5504 181.384 62.4445 181.596 62.2857C181.808 62.1269 181.914 61.8621 181.914 61.5974C181.914 61.3327 181.861 61.2268 181.755 61.015C181.649 60.8561 181.331 60.6443 180.854 60.4326L180.325 60.2208C179.848 60.009 179.583 59.7972 179.371 59.5325C179.212 59.2677 179.106 58.95 179.106 58.5794C179.106 58.2088 179.265 57.7323 179.636 57.4675C180.007 57.1498 180.431 57.0439 180.96 57.0439C181.49 57.0439 182.179 57.1498 182.496 57.3616L182.232 58.1029C182.126 57.997 181.914 57.944 181.702 57.8911C181.437 57.8382 181.225 57.7852 181.013 57.7852C180.696 57.7852 180.484 57.8911 180.272 58.0499C180.113 58.2088 180.007 58.4206 180.007 58.6853C180.007 58.95 180.007 59.003 180.113 59.1089C180.166 59.2148 180.272 59.3207 180.378 59.4266C180.484 59.5325 180.696 59.6384 181.066 59.7972L181.596 60.009C182.073 60.2208 182.391 60.4326 182.549 60.6973C182.708 60.962 182.814 61.3327 182.814 61.7562C182.814 62.1798 182.602 62.6034 182.232 62.9211C181.808 63.2388 181.278 63.3976 180.643 63.3976C180.007 63.3976 179.53 63.2917 179.159 63.027L179.106 62.9211Z" fill="black"/>
<path d="M183.45 60.962C183.45 60.2737 183.662 59.7442 184.032 59.3207C184.456 58.8971 184.986 58.6853 185.621 58.6853C186.257 58.6853 186.84 58.8971 187.21 59.2677C187.581 59.6913 187.793 60.2208 187.793 60.962C187.793 61.7033 187.581 62.2328 187.21 62.6563C186.84 63.0799 186.31 63.2917 185.621 63.2917C184.933 63.2917 184.403 63.0799 184.032 62.6563C183.662 62.2328 183.45 61.7033 183.45 60.962ZM184.35 60.962C184.35 62.0739 184.774 62.6034 185.621 62.6034C186.469 62.6034 186.31 62.4445 186.575 62.1798C186.787 61.8621 186.893 61.4915 186.893 60.962C186.893 59.8501 186.469 59.3207 185.621 59.3207C184.774 59.3207 184.933 59.4795 184.668 59.7442C184.403 60.009 184.297 60.4326 184.297 60.962H184.35Z" fill="black"/>
<path d="M192.401 59.1618L191.978 59.6913C191.872 59.5854 191.713 59.5325 191.501 59.4795C191.289 59.4266 191.077 59.3736 190.865 59.3736C190.389 59.3736 190.018 59.5325 189.753 59.7972C189.488 60.0619 189.329 60.4855 189.329 61.015C189.329 61.5444 189.488 61.9151 189.753 62.1798C190.018 62.4445 190.442 62.6034 190.918 62.6034C191.395 62.6034 191.713 62.4445 192.084 62.1798L192.401 62.8152C191.925 63.0799 191.395 63.2387 190.706 63.2387C190.018 63.2387 189.488 63.027 189.064 62.6563C188.641 62.2857 188.429 61.7033 188.429 61.015C188.429 60.3267 188.641 59.7442 189.117 59.3207C189.541 58.8971 190.177 58.6853 190.971 58.6853C191.766 58.6853 191.501 58.6853 191.766 58.8441C192.031 59.003 192.295 59.0559 192.401 59.1618Z" fill="black"/>
<path d="M193.726 63.1858V59.4266H193.037V58.7912H194.573V63.1858H193.726ZM194.202 57.0969C194.361 57.0969 194.467 57.0969 194.573 57.2558C194.679 57.3617 194.732 57.4676 194.732 57.5734C194.732 57.6793 194.732 57.8382 194.573 57.9441C194.467 58.05 194.361 58.1029 194.202 58.1029C194.044 58.1029 193.938 58.1029 193.832 57.9441C193.726 57.8382 193.673 57.7323 193.673 57.5734C193.673 57.4146 193.673 57.3087 193.832 57.2558C193.938 57.1499 194.044 57.0969 194.202 57.0969Z" fill="black"/>
<path d="M200.029 61.068H196.533C196.533 61.5974 196.692 61.9681 197.01 62.2857C197.275 62.5505 197.646 62.6564 198.069 62.6564C198.493 62.6564 198.97 62.5505 199.288 62.2857L199.658 62.8682C199.552 62.974 199.341 63.0799 199.023 63.1858C198.705 63.2917 198.281 63.3447 197.857 63.3447C197.275 63.3447 196.745 63.1329 196.321 62.7623C195.845 62.3387 195.633 61.8092 195.633 61.068C195.633 60.3267 195.898 59.7443 196.374 59.3207C196.798 58.9501 197.328 58.7383 197.91 58.7383C198.493 58.7383 199.129 58.8971 199.552 59.2678C199.923 59.5854 200.135 60.062 200.135 60.6444C200.135 61.2268 200.135 60.9621 200.082 61.1209L200.029 61.068ZM197.963 59.3736C197.593 59.3736 197.275 59.4795 197.01 59.6913C196.745 59.9031 196.639 60.1679 196.586 60.4855H199.288C199.288 60.1679 199.182 59.9031 198.97 59.6913C198.758 59.4795 198.387 59.3207 198.016 59.3207L197.963 59.3736Z" fill="black"/>
<path d="M201.3 59.4264H200.718V58.791H201.3V57.8909L202.148 57.5732V58.791H203.472V59.4264H202.148V61.5972C202.148 61.9678 202.201 62.2326 202.36 62.3914C202.519 62.5503 202.731 62.6032 202.995 62.6032C203.26 62.6032 203.419 62.6032 203.684 62.4444L203.79 63.1327C203.419 63.2386 203.048 63.2386 202.625 63.2386C202.201 63.2386 201.936 63.1327 201.671 62.8679C201.406 62.6032 201.3 62.2855 201.3 61.862V59.3734V59.4264Z" fill="black"/>
<path d="M206.544 63.9271C206.438 64.1918 206.173 64.4566 205.856 64.6154C205.485 64.8272 205.114 64.8801 204.637 64.8801V64.1918C205.008 64.1918 205.326 64.1389 205.538 63.98C205.75 63.8212 205.909 63.6624 205.909 63.3976C205.909 63.1329 205.909 62.9211 205.75 62.6564C205.644 62.4446 205.538 62.1269 205.379 61.8092L204.055 58.7383H204.955L206.385 62.1798L207.657 58.7383H208.557L206.491 63.9271H206.544Z" fill="black"/>
<path d="M216.502 63.2915H216.29L214.86 60.2735L213.43 63.2915H213.218L211.47 58.791H212.371L213.43 61.7031L214.701 58.791H214.913L216.237 61.7031L217.35 58.791H218.197L216.449 63.2915H216.502Z" fill="black"/>
<path d="M219.362 63.1858V59.4266H218.674V58.7912H220.21V63.1858H219.362ZM219.786 57.0969C219.945 57.0969 220.051 57.0969 220.157 57.2558C220.263 57.3617 220.316 57.4676 220.316 57.5734C220.316 57.6793 220.316 57.8382 220.157 57.9441C220.051 58.05 219.945 58.1029 219.786 58.1029C219.627 58.1029 219.521 58.1029 219.415 57.9441C219.309 57.8382 219.256 57.7323 219.256 57.5734C219.256 57.4146 219.256 57.3087 219.415 57.2558C219.521 57.1499 219.627 57.0969 219.786 57.0969Z" fill="black"/>
<path d="M221.852 59.4264H221.27V58.791H221.852V57.8909L222.7 57.5732V58.791H224.024V59.4264H222.7V61.5972C222.7 61.9678 222.753 62.2326 222.912 62.3914C223.07 62.5503 223.282 62.6032 223.547 62.6032C223.812 62.6032 223.971 62.6032 224.236 62.4444L224.342 63.1327C223.971 63.2386 223.6 63.2386 223.176 63.2386C222.753 63.2386 222.488 63.1327 222.223 62.8679C221.958 62.6032 221.852 62.2855 221.852 61.862V59.3734V59.4264Z" fill="black"/>
<path d="M228.208 63.1857V60.4325C228.208 60.1148 228.103 59.8501 227.944 59.6383C227.785 59.4265 227.52 59.3736 227.202 59.3736C226.884 59.3736 226.778 59.4265 226.566 59.5324C226.355 59.6383 226.196 59.7971 226.09 59.903V63.1857H225.242V56.938H226.09V59.2147C226.196 59.0559 226.408 58.897 226.619 58.7911C226.831 58.6852 227.149 58.6323 227.414 58.6323C227.944 58.6323 228.314 58.7911 228.632 59.1088C228.897 59.4265 229.056 59.8501 229.056 60.3795V63.1328H228.208V63.1857Z" fill="black"/>
<path d="M235.412 57.8909V63.1856H234.512V57.8909H232.393V57.1497H237.584V57.8909H235.359H235.412Z" fill="black"/>
<path d="M241.186 61.068H237.69C237.69 61.5974 237.849 61.9681 238.167 62.2857C238.432 62.5505 238.802 62.6564 239.226 62.6564C239.65 62.6564 240.127 62.5505 240.444 62.2857L240.815 62.8682C240.709 62.974 240.497 63.0799 240.18 63.1858C239.862 63.2917 239.438 63.3447 239.014 63.3447C238.432 63.3447 237.902 63.1329 237.478 62.7623C237.001 62.3387 236.79 61.8092 236.79 61.068C236.79 60.3267 237.054 59.7443 237.531 59.3207C237.955 58.9501 238.485 58.7383 239.067 58.7383C239.65 58.7383 240.285 58.8971 240.709 59.2678C241.08 59.5854 241.292 60.062 241.292 60.6444C241.292 61.2268 241.292 60.9621 241.239 61.1209L241.186 61.068ZM239.12 59.3736C238.749 59.3736 238.432 59.4795 238.167 59.6913C237.902 59.9031 237.796 60.1679 237.743 60.4855H240.444C240.444 60.1679 240.338 59.9031 240.127 59.6913C239.915 59.4795 239.544 59.3207 239.173 59.3207L239.12 59.3736Z" fill="black"/>
<path d="M245.847 59.1618L245.423 59.6913C245.317 59.5854 245.159 59.5325 244.947 59.4795C244.735 59.4266 244.523 59.3736 244.311 59.3736C243.834 59.3736 243.464 59.5325 243.199 59.7972C242.934 60.0619 242.775 60.4855 242.775 61.015C242.775 61.5444 242.934 61.9151 243.199 62.1798C243.464 62.4445 243.887 62.6034 244.364 62.6034C244.841 62.6034 245.159 62.4445 245.529 62.1798L245.847 62.8152C245.37 63.0799 244.841 63.2387 244.152 63.2387C243.464 63.2387 242.934 63.027 242.51 62.6563C242.086 62.2857 241.875 61.7033 241.875 61.015C241.875 60.3267 242.086 59.7442 242.563 59.3207C242.987 58.8971 243.622 58.6853 244.417 58.6853C245.212 58.6853 244.947 58.6853 245.212 58.8441C245.476 59.003 245.741 59.0559 245.847 59.1618Z" fill="black"/>
<path d="M249.714 63.1857V60.4325C249.714 60.1148 249.608 59.8501 249.449 59.6383C249.29 59.4265 249.025 59.3736 248.707 59.3736C248.39 59.3736 248.284 59.4265 248.072 59.5324C247.86 59.6383 247.701 59.7971 247.595 59.903V63.1857H246.748V56.938H247.595V59.2147C247.701 59.0559 247.913 58.897 248.125 58.7911C248.337 58.6852 248.654 58.6323 248.919 58.6323C249.449 58.6323 249.82 58.7911 250.138 59.1088C250.402 59.4265 250.561 59.8501 250.561 60.3795V63.1328H249.714V63.1857Z" fill="black"/>
<path d="M254.799 63.1858V60.5914C254.799 60.1149 254.746 59.7972 254.587 59.5854C254.428 59.3736 254.163 59.3207 253.792 59.3207C253.422 59.3207 253.369 59.3736 253.157 59.4795C252.945 59.5854 252.786 59.7442 252.68 59.8501V63.1329H251.833V58.7382H252.415L252.68 59.3207C252.945 58.8971 253.422 58.6853 254.057 58.6853C255.117 58.6853 255.646 59.2677 255.646 60.4326V63.1858H254.799Z" fill="black"/>
<path d="M256.547 60.962C256.547 60.2737 256.759 59.7442 257.13 59.3207C257.553 58.8971 258.083 58.6853 258.719 58.6853C259.354 58.6853 259.937 58.8971 260.308 59.2677C260.678 59.6913 260.89 60.2208 260.89 60.962C260.89 61.7033 260.678 62.2328 260.308 62.6563C259.937 63.0799 259.407 63.2917 258.719 63.2917C258.03 63.2917 257.5 63.0799 257.13 62.6563C256.759 62.2328 256.547 61.7033 256.547 60.962ZM257.447 60.962C257.447 62.0739 257.871 62.6034 258.719 62.6034C259.566 62.6034 259.407 62.4445 259.672 62.1798C259.884 61.8621 259.99 61.4915 259.99 60.962C259.99 59.8501 259.566 59.3207 258.719 59.3207C257.871 59.3207 258.03 59.4795 257.765 59.7442C257.5 60.009 257.394 60.4326 257.394 60.962H257.447Z" fill="black"/>
<path d="M261.896 61.968V56.991H262.744V61.8621C262.744 62.0739 262.797 62.2857 262.956 62.4445C263.115 62.6034 263.274 62.6563 263.539 62.6563V63.3446C262.426 63.3446 261.896 62.921 261.896 62.0209V61.968Z" fill="black"/>
<path d="M264.227 60.962C264.227 60.2737 264.439 59.7442 264.81 59.3207C265.233 58.8971 265.763 58.6853 266.399 58.6853C267.034 58.6853 267.617 58.8971 267.988 59.2677C268.359 59.6913 268.57 60.2208 268.57 60.962C268.57 61.7033 268.359 62.2328 267.988 62.6563C267.617 63.0799 267.087 63.2917 266.399 63.2917C265.71 63.2917 265.18 63.0799 264.81 62.6563C264.439 62.2328 264.227 61.7033 264.227 60.962ZM265.18 60.962C265.18 62.0739 265.604 62.6034 266.452 62.6034C267.299 62.6034 267.14 62.4445 267.405 62.1798C267.617 61.8621 267.723 61.4915 267.723 60.962C267.723 59.8501 267.299 59.3207 266.452 59.3207C265.604 59.3207 265.763 59.4795 265.498 59.7442C265.233 60.009 265.128 60.4326 265.128 60.962H265.18Z" fill="black"/>
<path d="M269.365 64.4035L269.842 63.7681C270.318 64.0858 270.795 64.2446 271.219 64.2446C271.643 64.2446 271.907 64.1917 272.119 64.0858C272.331 63.9799 272.437 63.821 272.437 63.6093C272.437 63.2386 272.172 63.0798 271.59 63.0798C271.007 63.0798 271.325 63.0798 271.06 63.1327C270.795 63.1327 270.583 63.1857 270.477 63.1857C269.789 63.1857 269.471 62.9739 269.471 62.4974C269.471 62.0208 269.577 62.2326 269.736 62.1267C269.895 62.0208 270.107 61.9149 270.318 61.862C269.63 61.5973 269.312 61.0678 269.312 60.3265C269.312 59.5853 269.471 59.4794 269.842 59.1617C270.212 58.844 270.636 58.6852 271.166 58.6852C271.696 58.6852 272.013 58.7911 272.278 58.9499L272.702 58.4734L273.285 58.9499L272.755 59.3205C272.967 59.5853 273.073 59.903 273.073 60.3265C273.073 60.7501 272.914 61.1207 272.596 61.4384C272.278 61.7561 271.907 61.915 271.378 61.9679H270.689C270.583 62.0208 270.477 62.0738 270.371 62.1267C270.212 62.1267 270.16 62.2326 270.16 62.3385C270.16 62.4444 270.318 62.4974 270.583 62.4974C270.848 62.4974 270.901 62.4974 271.166 62.4444C271.431 62.4444 271.643 62.3915 271.802 62.3915C272.278 62.3915 272.649 62.4974 272.914 62.7092C273.179 62.9209 273.338 63.1857 273.338 63.5563C273.338 63.9269 273.126 64.2976 272.755 64.5623C272.384 64.827 271.855 64.9329 271.219 64.9329C270.583 64.9329 270.583 64.9329 270.212 64.7741C269.842 64.6682 269.577 64.5623 269.365 64.4035ZM271.166 59.3205C270.848 59.3205 270.636 59.4264 270.424 59.5853C270.212 59.7441 270.16 60.0089 270.16 60.2736C270.16 60.5383 270.265 60.856 270.424 61.0148C270.583 61.2266 270.848 61.3325 271.166 61.3325C271.484 61.3325 271.696 61.2266 271.855 61.0148C272.013 60.8031 272.119 60.5383 272.119 60.2206C272.119 59.903 272.013 59.6912 271.855 59.5323C271.696 59.3735 271.431 59.2676 271.166 59.2676V59.3205Z" fill="black"/>
<path d="M276.039 63.9271C275.933 64.1918 275.669 64.4566 275.351 64.6154C274.98 64.8272 274.609 64.8801 274.132 64.8801V64.1918C274.503 64.1918 274.821 64.1389 275.033 63.98C275.245 63.8212 275.404 63.6624 275.404 63.3976C275.404 63.1329 275.404 62.9211 275.245 62.6564C275.139 62.4446 275.033 62.1269 274.874 61.8092L273.55 58.7383H274.45L275.88 62.1798L277.152 58.7383H278.052L275.986 63.9271H276.039Z" fill="black"/>
<path d="M14.8504 11.2976C-0.404576 24.4285 -4.27129 44.972 6.26949 57.2028C16.8103 69.4335 37.68 68.6923 52.9879 55.5084C68.2429 42.3776 72.1096 21.7812 61.5689 9.60334C51.0281 -2.62744 30.1584 -1.83323 14.8504 11.2976ZM46.102 42.5894C46.102 45.978 43.3476 48.7312 39.9576 48.7312H15.645C12.255 48.7312 9.50058 45.978 9.50058 42.5894V40.5774C9.50058 37.1888 12.255 34.4355 15.645 34.4355H39.9576C43.3476 34.4355 46.102 37.1888 46.102 40.5774V42.5894ZM58.3378 26.2287C58.3378 29.6173 55.5834 32.3706 52.1934 32.3706H27.8807C24.4907 32.3706 21.7364 29.6173 21.7364 26.2287V24.2167C21.7364 20.8281 24.4907 18.0749 27.8807 18.0749H52.1934C55.5834 18.0749 58.3378 20.8281 58.3378 24.2167V26.2287Z" fill="black"/>
<path d="M170.526 42.7481V36.1827H155.218V29.9349L168.195 15.7451H174.445V32.1587H181.278L179.213 36.1827H174.445V42.7481H170.473H170.526ZM170.526 32.1587V18.4454L158.237 32.1587H170.526Z" fill="black"/>
<path d="M202.042 9.28564H197.063L180.802 42.7482H185.569L189.065 35.5474H210.358L213.96 42.7482H218.41L202.201 9.49743L202.095 9.28564H202.042ZM208.24 31.3116H191.078L199.606 13.8391L208.24 31.3116Z" fill="black"/>
<path d="M226.99 9.28564H221.905V42.7482H247.383V38.3536H226.99V9.28564Z" fill="black"/>
<path d="M255.647 38.3536V9.28564H250.615V42.7482H276.04V38.3536H255.647Z" fill="black"/>
<path d="M88.1064 12.886V13.892V23.5283V28.2406V37.877V38.4065V42.6422H112.578V37.877H92.8207V28.2406H110.777V23.5283H92.8207V13.892H112.578V9.17969H88.1064V12.886Z" fill="black"/>
<path d="M134.083 38.883C126.721 38.883 120.788 32.953 120.788 25.5933C120.788 18.2337 126.721 12.3036 134.083 12.3036C141.446 12.3036 147.378 18.2337 147.378 25.5933C147.378 32.953 146.266 31.6293 144.412 33.906L138.956 28.4525L135.619 31.7881L149.073 45.2367L152.41 41.901L147.114 36.6063C149.656 33.6413 151.139 29.7761 151.139 25.5404C151.139 16.0629 143.459 8.43848 134.03 8.43848C124.602 8.43848 116.921 16.1158 116.921 25.5404C116.921 34.965 124.602 42.6423 134.03 42.6423C143.459 42.6423 137.473 42.3775 139.115 41.901L135.937 38.7242C135.302 38.8301 134.719 38.883 134.083 38.883Z" fill="black"/>
</g>
<defs>
<clipPath id="clip0_54724_188">
<rect width="277.715" height="64.966" fill="black" transform="translate(0.336914 0.920166)"/>
</clipPath>
</defs>
</svg>
