<svg width="15" height="15" viewBox="0 0 15 15"  xmlns="http://www.w3.org/2000/svg">
<path d="M0.136324 10.1194C1.31131 13.0861 4.1196 15 7.29455 15C11.5445 15 15 11.5417 15 7.29444C15 4.11944 13.0834 1.31111 10.1167 0.136111C9.88896 0.0444444 9.6473 0 9.40286 0C8.83342 0 8.29454 0.247222 7.9251 0.680556C7.38622 1.31111 7.30567 2.21667 7.72788 2.93056C8.06121 3.49722 8.23065 4.09444 8.23065 4.7C8.23065 6.64722 6.64734 8.23056 4.70015 8.23056C4.09182 8.23056 3.49739 8.06111 2.93073 7.72778C2.63351 7.55278 2.29463 7.46944 1.95296 7.46944C1.49186 7.46944 1.03353 7.625 0.680761 7.92778C0.0502144 8.46667 -0.169227 9.35 0.136324 10.1194ZM1.76408 9.19444C1.80574 9.15833 1.88074 9.13611 1.95574 9.13611C2.00852 9.13611 2.05574 9.14722 2.0863 9.16389C2.91406 9.65 3.79461 9.89722 4.70293 9.89722C7.56677 9.89722 9.90007 7.56667 9.90007 4.7C9.90007 3.79167 9.65285 2.91111 9.16675 2.08611C9.10564 1.98333 9.11675 1.85556 9.19453 1.76389C9.2473 1.7 9.3223 1.66667 9.40564 1.66667C9.44175 1.66667 9.4723 1.67222 9.50841 1.68611C11.8334 2.60556 13.3361 4.80833 13.3361 7.29444C13.3361 10.625 10.6278 13.3333 7.29733 13.3333C4.81126 13.3333 2.61129 11.8306 1.68908 9.50556C1.64464 9.39445 1.67797 9.26944 1.76686 9.19167L1.76408 9.19444Z" fill="#222222"/>
<path d="M1.6013 3.22429C1.67949 3.26505 1.74517 3.32776 1.7827 3.40615L2.16427 4.1712C2.22682 4.29661 2.35818 4.375 2.50205 4.375C2.64592 4.375 2.77728 4.29661 2.83983 4.1712L3.2214 3.40615C3.25893 3.32776 3.32461 3.26191 3.4028 3.22429L4.16594 2.84176C4.29417 2.77592 4.37549 2.64737 4.37549 2.50314C4.37549 2.3589 4.29417 2.22722 4.16594 2.16451L3.4028 1.78198C3.32461 1.74122 3.25893 1.67851 3.2214 1.60013L2.83983 0.835075C2.77415 0.706522 2.64592 0.625 2.50205 0.625C2.35818 0.625 2.22682 0.706522 2.16114 0.835075L1.77958 1.60013C1.73892 1.67851 1.67636 1.74436 1.59817 1.78198L0.835038 2.16451C0.706806 2.23035 0.625488 2.3589 0.625488 2.50627C0.625488 2.65364 0.706806 2.78219 0.835038 2.8449L1.59817 3.22743L1.6013 3.22429Z" fill="#222222"/>
</svg>
