<svg width="15" height="15" viewBox="0 0 15 15"  xmlns="http://www.w3.org/2000/svg">
<path d="M7.50007 3.84332C9.51703 3.84332 11.1564 5.48233 11.1564 7.4988C11.1564 9.51818 9.51703 11.1543 7.50007 11.1543C5.48021 11.1543 3.84371 9.52001 3.84371 7.4988C3.84371 5.48172 5.48021 3.84332 7.50007 3.84332ZM2.19348 3.41284C1.8607 3.07538 1.8607 2.53399 2.19348 2.19651C2.53102 1.85905 3.07551 1.85905 3.41307 2.19651L4.24204 3.02528C4.57958 3.36274 4.57958 3.9071 4.24204 4.24458C3.90449 4.57728 3.36298 4.57728 3.02542 4.24458L2.19348 3.41284ZM0.858188 8.35978C0.382277 8.35978 0 7.97402 0 7.49703C0 7.02481 0.382277 6.63905 0.858188 6.63905H2.03305C2.50896 6.63905 2.896 7.02481 2.896 7.49703C2.896 7.97283 2.51015 8.35978 2.03305 8.35978H0.858188ZM3.41301 12.8035C3.07547 13.1409 2.53097 13.1409 2.19342 12.8035C1.86064 12.466 1.86064 11.9216 2.19342 11.5871L3.02774 10.753C3.36528 10.4156 3.9068 10.4156 4.24436 10.753C4.5819 11.0905 4.5819 11.6348 4.24436 11.9693L3.41301 12.8035ZM8.35823 14.1373C8.35823 14.6131 7.97238 15 7.50004 15C7.02413 15 6.63709 14.6142 6.63709 14.1373V12.9627C6.63709 12.4869 7.02294 12.1047 7.50004 12.1047C7.97238 12.1047 8.35823 12.4869 8.35823 12.9627V14.1373ZM12.8018 11.5872C13.1393 11.9199 13.1393 12.466 12.8018 12.8035C12.4642 13.141 11.9227 13.141 11.5851 12.8035L10.7562 11.9694C10.4186 11.6367 10.4186 11.0905 10.7562 10.753C11.089 10.4156 11.6352 10.4156 11.9728 10.753L12.8018 11.5872ZM14.1418 6.64022C14.6142 6.64022 15 7.02598 15 7.49821C15 7.974 14.6142 8.36095 14.1418 8.36095H12.9622C12.4898 8.36095 12.104 7.97519 12.104 7.49821C12.104 7.02598 12.4898 6.64022 12.9622 6.64022H14.1418ZM11.587 2.19653C11.9245 1.85906 12.466 1.85906 12.8036 2.19653C13.1412 2.53399 13.1412 3.07537 12.8036 3.41285L11.9746 4.24698C11.6371 4.57968 11.0926 4.57968 10.758 4.24698C10.4205 3.90952 10.4205 3.36515 10.758 3.02768L11.587 2.19653ZM6.63704 0.862745C6.63704 0.386948 7.02289 0 7.49999 0C7.97233 0 8.35818 0.385757 8.35818 0.862745V2.03733C8.35818 2.50955 7.97233 2.89531 7.49999 2.89531C7.02408 2.89531 6.63704 2.50955 6.63704 2.03733V0.862745ZM8.86743 6.13114C8.11183 5.37571 6.88742 5.37571 6.13246 6.13114C5.37685 6.88656 5.37685 8.11357 6.13246 8.8708C6.88807 9.62266 8.11247 9.62266 8.86743 8.8708C9.62304 8.11359 9.62304 6.88653 8.86743 6.13114Z" fill="#222222"/>
</svg>
