<svg width="24" height="24" viewBox="0 0 24 24"  xmlns="http://www.w3.org/2000/svg">
<path d="M19.3632 3.3331L17.5562 2.1232C17.3225 1.95893 17.0108 1.95893 16.7771 2.1232L15.0417 3.28738L13.3062 2.1232C13.0725 1.95893 12.7608 1.95893 12.5271 2.1232L10.7917 3.28738L9.05625 2.1232C8.8225 1.95893 8.51083 1.95893 8.27708 2.1232L6.47012 3.3331C6.07275 3.5995 5.83333 4.04875 5.83333 4.53013V15.572H15.0417C16.2104 15.572 17.1667 16.5362 17.1667 17.7147V19.8573C17.1667 20.2502 16.8479 20.5716 16.4583 20.5716C16.0687 20.5716 15.75 20.2502 15.75 19.8573V17.7147C15.75 17.3218 15.4312 17.0004 15.0417 17.0004H4.41667C3.63396 17.0004 3 17.6397 3 18.4289V19.1431C3 20.7208 4.26862 22 5.83333 22H17.875C19.0437 22 20 21.0358 20 19.8573V4.53013C20 4.04875 19.7613 3.5995 19.3632 3.3331ZM10.0833 13.4293H9.375C8.98542 13.4293 8.66667 13.1079 8.66667 12.7151C8.66667 12.3223 8.98542 12.0009 9.375 12.0009H10.0833C10.4729 12.0009 10.7917 12.3223 10.7917 12.7151C10.7917 13.1079 10.4729 13.4293 10.0833 13.4293ZM10.0833 10.5724H9.375C8.98542 10.5724 8.66667 10.251 8.66667 9.85823C8.66667 9.4654 8.98542 9.144 9.375 9.144H10.0833C10.4729 9.144 10.7917 9.4654 10.7917 9.85823C10.7917 10.251 10.4729 10.5724 10.0833 10.5724ZM10.0833 7.71556H9.375C8.98542 7.71556 8.66667 7.39416 8.66667 7.00134C8.66667 6.60852 8.98542 6.28712 9.375 6.28712H10.0833C10.4729 6.28712 10.7917 6.60852 10.7917 7.00134C10.7917 7.39416 10.4729 7.71556 10.0833 7.71556ZM16.4583 13.4293H12.2083C11.8187 13.4293 11.5 13.1079 11.5 12.7151C11.5 12.3223 11.8187 12.0009 12.2083 12.0009H16.4583C16.8479 12.0009 17.1667 12.3223 17.1667 12.7151C17.1667 13.1079 16.8479 13.4293 16.4583 13.4293ZM16.4583 10.5724H12.2083C11.8187 10.5724 11.5 10.251 11.5 9.85823C11.5 9.4654 11.8187 9.144 12.2083 9.144H16.4583C16.8479 9.144 17.1667 9.4654 17.1667 9.85823C17.1667 10.251 16.8479 10.5724 16.4583 10.5724ZM16.4583 7.71556H12.2083C11.8187 7.71556 11.5 7.39416 11.5 7.00134C11.5 6.60852 11.8187 6.28712 12.2083 6.28712H16.4583C16.8479 6.28712 17.1667 6.60852 17.1667 7.00134C17.1667 7.39416 16.8479 7.71556 16.4583 7.71556Z" />
</svg>
