<svg width="24" height="24" viewBox="0 0 24 24" xmlns="http://www.w3.org/2000/svg">
<path d="M13.9884 15.0311H20.004C20.5579 15.0311 21.0066 15.585 21.0066 16.0337V20.0441C21.0066 20.598 20.5579 21.0467 20.004 21.0467H13.9884C13.4345 21.0467 12.9858 20.4927 12.9858 20.0441V16.0337C12.9858 15.4797 13.4345 15.0311 13.9884 15.0311Z" />
<path d="M4.0026 10.954H10.0182C10.5721 10.954 11.0208 11.5079 11.0208 11.9566V19.9774C11.0208 20.5313 10.5721 20.98 10.0182 20.98H4.0026C3.44867 20.98 3 20.426 3 19.9774V11.9566C3 11.4027 3.44867 10.954 4.0026 10.954Z" />
<path d="M4.0026 3H10.0182C10.5721 3 11.0208 3.55393 11.0208 4.0026V8.01299C11.0208 8.56691 10.5721 9.01558 10.0182 9.01558H4.0026C3.44867 9.01558 3 8.46166 3 8.01299V4.0026C3 3.44867 3.44867 3 4.0026 3Z" />
<path d="M13.9884 3H20.004C20.5579 3 21.0066 3.55393 21.0066 4.0026V12.0234C21.0066 12.5773 20.5579 13.026 20.004 13.026H13.9884C13.4345 13.026 12.9858 12.472 12.9858 12.0234V4.0026C12.9858 3.44867 13.4345 3 13.9884 3Z" />
</svg>
