<svg width="24" height="24" viewBox="0 0 24 24"  xmlns="http://www.w3.org/2000/svg">
<path d="M3.25 0.75C1.8625 0.75 0.75 1.8625 0.75 3.25V20.75C0.75 21.413 1.01339 22.0489 1.48223 22.5178C1.95107 22.9866 2.58696 23.25 3.25 23.25H20.75C21.413 23.25 22.0489 22.9866 22.5178 22.5178C22.9866 22.0489 23.25 21.413 23.25 20.75V12H20.75V20.75H3.25V3.25H12V0.75H3.25ZM19.225 2C19.0125 2 18.7875 2.0875 18.625 2.25L17.1 3.7625L20.225 6.8875L21.75 5.375C22.075 5.05 22.075 4.5 21.75 4.1875L19.8125 2.25C19.65 2.0875 19.4375 2 19.225 2ZM16.2125 4.65L7 13.875V17H10.125L19.3375 7.775L16.2125 4.65Z" />
</svg>
