<svg width="24" height="24" viewBox="0 0 24 24"  xmlns="http://www.w3.org/2000/svg">
<path d="M8.33284 15.3322H7.33283C4.3875 15.3322 2 17.7213 2 20.6666C2 21.4025 2.59688 21.9994 3.33281 21.9994H12.3329C12.6876 21.9994 13.0266 21.8588 13.2766 21.6088C13.5266 21.3588 13.6673 21.0197 13.6673 20.6666C13.6673 17.7212 11.2782 15.3322 8.33284 15.3322Z" />
<path d="M12 9.49938C12 11.801 10.1343 13.6666 7.83274 13.6666C5.53273 13.6666 3.66711 11.801 3.66711 9.49938C3.66711 7.1978 5.53277 5.33215 7.83274 5.33215C10.1343 5.33215 12 7.1978 12 9.49938Z" />
<path d="M16.1672 10.3322C17.7876 10.3135 19.25 9.35409 19.9157 7.87596C20.5813 6.39627 20.3282 4.66658 19.2672 3.43993C18.2063 2.21336 16.5297 1.71492 14.972 2.16024C13.4127 2.60557 12.2532 3.91494 12.0001 5.51651C13.0439 6.57587 13.6408 7.9962 13.6673 9.48217C14.3845 10.0322 15.2625 10.3307 16.1672 10.3322Z" />
<path d="M16.6673 11.9994H15.6673C14.4438 12.0181 13.2657 12.4603 12.3329 13.2494C12.1563 13.4447 11.9673 13.6291 11.7672 13.7994C11.611 13.9682 11.4657 14.1463 11.3329 14.3322C13.1235 15.19 14.4673 16.765 15.0329 18.6666H20.6673C21.0205 18.6666 21.3595 18.526 21.6096 18.276C21.8596 18.026 22.0002 17.6869 22.0002 17.3322C22.0002 14.3869 19.6126 11.9994 16.6673 11.9994Z" />
</svg>
